<?xml version="1.0" encoding="UTF-8" standalone="no"?>
<svg
   xmlns:dc="http://purl.org/dc/elements/1.1/"
   xmlns:cc="http://creativecommons.org/ns#"
   xmlns:rdf="http://www.w3.org/1999/02/22-rdf-syntax-ns#"
   xmlns:svg="http://www.w3.org/2000/svg"
   xmlns="http://www.w3.org/2000/svg"
   xmlns:sodipodi="http://sodipodi.sourceforge.net/DTD/sodipodi-0.dtd"
   xmlns:inkscape="http://www.inkscape.org/namespaces/inkscape"
   svg:contrastcolor="f4cc70"
   svg:template="Contrast"
   svg:presentation="2.5"
   svg:layouttype="undefined"
   svg:specialfontid="undefined"
   svg:id1="322"
   svg:id2="688"
   svg:companyname="organico"
   svg:companytagline=""
   version="1.1"
   viewBox="0 0 229.07706 216"
   id="svg45"
   sodipodi:docname="logo.svg"
   width="229.07706"
   height="216"
   inkscape:version="1.0.1 (c497b03c, 2020-09-10)">
  <metadata
     id="metadata51">
    <rdf:RDF>
      <cc:Work
         rdf:about="">
        <dc:format>image/svg+xml</dc:format>
        <dc:type
           rdf:resource="http://purl.org/dc/dcmitype/StillImage" />
        <dc:title></dc:title>
      </cc:Work>
    </rdf:RDF>
  </metadata>
  <defs
     id="defs49" />
  <sodipodi:namedview
     pagecolor="#ffffff"
     bordercolor="#666666"
     borderopacity="1"
     objecttolerance="10"
     gridtolerance="10"
     guidetolerance="10"
     inkscape:pageopacity="0"
     inkscape:pageshadow="2"
     inkscape:window-width="1361"
     inkscape:window-height="802"
     id="namedview47"
     showgrid="false"
     fit-margin-top="0"
     fit-margin-left="0"
     fit-margin-right="0"
     fit-margin-bottom="0"
     inkscape:zoom="1.5638298"
     inkscape:cx="119.65417"
     inkscape:cy="127.67347"
     inkscape:window-x="0"
     inkscape:window-y="25"
     inkscape:window-maximized="0"
     inkscape:current-layer="svg45" />
  <g
     data-paper-data="{&quot;isPrimaryText&quot;:true}"
     id="g18"
     style="font-family:none;mix-blend-mode:normal;fill:#20948b;fill-rule:nonzero;stroke:none;stroke-width:1;stroke-linecap:butt;stroke-linejoin:miter;stroke-miterlimit:10;stroke-dasharray:none;stroke-dashoffset:0"
     transform="translate(-160.46148,-139)">
    <path
       d="m 208.32832,298.83481 c 0,0 0,1.08626 0,3.25879 0,2.17253 -0.96161,5.28886 -2.88483,9.34899 -1.92322,4.06013 -4.54688,8.20337 -7.87096,12.42971 -4.17885,5.27105 -9.07001,9.42616 -14.67347,12.46532 -2.94419,1.56707 -5.98336,2.3506 -9.11749,2.3506 -4.22634,0 -7.59791,-1.49584 -10.11472,-4.48752 -2.13691,-2.51681 -3.20537,-5.48474 -3.20537,-8.9038 0,-4.7487 1.73327,-9.92477 5.19982,-15.52823 2.5643,-4.08388 5.71031,-7.7285 9.43803,-10.93387 3.72773,-3.20537 7.08743,-5.30667 10.07911,-6.30389 1.94696,-0.56984 3.79896,-0.85477 5.55597,-0.85477 1.75702,0 3.2766,0.59359 4.55875,1.78076 1.42461,1.28215 2.13691,3.18163 2.13691,5.69843 0,1.4721 -0.26118,2.99168 -0.78353,4.55875 -0.14246,0.56984 -0.30867,0.66482 -0.49861,0.28492 -0.095,-0.18995 -0.0712,-0.55797 0.0712,-1.10407 0.14246,-0.5461 0.21369,-1.12782 0.21369,-1.74515 0,-2.08943 -1.23466,-3.13414 -3.70398,-3.13414 -3.56152,0 -7.98968,1.70953 -13.28447,5.12859 -5.2948,3.41906 -9.27183,6.95684 -11.9311,10.61333 -3.6565,5.03362 -5.48474,9.56862 -5.48474,13.60501 0,4.41629 2.46932,7.02807 7.40796,7.83535 0.7123,0.14246 1.44835,0.21369 2.20814,0.21369 2.61178,0 5.76966,-0.66482 9.47365,-1.99445 6.64817,-2.37435 12.06169,-6.12582 16.24054,-11.25441 5.461,-6.79063 8.1915,-14.38855 8.1915,-22.79374 0,-3.13414 -0.34428,-5.44913 -1.03284,-6.94497 -0.68856,-1.49584 -1.34151,-2.39809 -1.95884,-2.70676 -0.61733,-0.30867 -1.16343,-0.39177 -1.6383,-0.24931 -0.47487,0.14246 -0.68856,0.095 -0.64107,-0.14246 0.0475,-0.47487 0.64107,-0.7123 1.78076,-0.7123 1.13969,0 2.27937,0.47487 3.41906,1.42461 1.89948,1.51958 2.84922,4.4519 2.84922,8.79696 z"
       data-paper-data="{&quot;glyphName&quot;:&quot;O&quot;,&quot;glyphIndex&quot;:0,&quot;firstGlyphOfWord&quot;:true,&quot;word&quot;:1}"
       id="path-id-7428" />
    <path
       d="m 220.29503,321.23678 c -2.08943,2.42183 -3.78708,4.64185 -5.09298,6.66004 -1.30589,2.0182 -1.95884,3.4428 -1.95884,4.27383 0,0.83102 0.48674,1.24653 1.46022,1.24653 0.97348,0 2.96793,-0.97348 5.98336,-2.92045 3.01542,-1.94696 5.80528,-4.13136 8.36958,-6.5532 0.23743,-0.23743 0.45113,-0.33241 0.64107,-0.28492 0.18995,0.0475 0.28492,0.1662 0.28492,0.35615 0,0.18995 -0.095,0.40364 -0.28492,0.64107 -6.12582,5.60346 -10.80328,9.11749 -14.03239,10.5421 -1.42461,0.56984 -2.44558,0.85477 -3.06291,0.85477 -2.27937,0 -3.83457,-0.3799 -4.66559,-1.13969 -0.83102,-0.75979 -1.24653,-1.59081 -1.24653,-2.49306 0,-1.8045 0.35615,-3.18163 1.06846,-4.13136 2.32686,-3.2766 4.17885,-6.05459 5.55597,-8.33396 0.42738,-0.66482 0.34428,-1.12782 -0.24931,-1.38899 -0.59359,-0.26118 -1.32963,-0.39177 -2.20814,-0.39177 -0.87851,0 -1.34151,-0.0237 -1.38899,-0.0712 -3.18163,4.27383 -6.33951,7.6454 -9.47365,10.11472 -0.3799,0.33241 -0.59359,0.33241 -0.64107,0 0,-0.3799 0.26118,-0.83102 0.78353,-1.35338 3.32409,-2.84922 6.05459,-5.86464 8.1915,-9.04626 -0.42738,-0.28492 -0.64107,-0.67669 -0.64107,-1.1753 0,-0.49861 0.0356,-1.10407 0.10685,-1.81638 0.0712,-0.7123 0.43925,-1.66204 1.10407,-2.84922 1.13969,-1.99445 2.32686,-2.99168 3.56152,-2.99168 1.04471,0 1.56707,0.56984 1.56707,1.70953 0,1.56707 -0.73605,3.2766 -2.20814,5.12859 -0.7123,0.85477 -1.37712,1.4721 -1.99445,1.85199 1.75702,-0.56984 4.32131,-0.85477 7.69289,-0.85477 1.66204,0 2.84922,0.61733 3.56152,1.85199 0.095,0.18995 0.14246,0.47487 0.14246,0.85477 0,0.3799 -0.30867,0.94974 -0.926,1.70953 z"
       data-paper-data="{&quot;glyphName&quot;:&quot;r&quot;,&quot;glyphIndex&quot;:1,&quot;word&quot;:1}"
       id="path-id-733" />
    <path
       d="m 219.79642,355 c -4.13136,0 -7.5623,-0.90225 -10.2928,-2.70676 -2.7305,-1.8045 -4.09575,-4.3688 -4.09575,-7.69289 0,-0.18995 0.0712,-0.28492 0.21369,-0.28492 0.33241,0 0.5461,0.18995 0.64107,0.56984 0.42738,2.42183 1.59081,4.51126 3.49029,6.26828 0.85477,0.80728 2.03007,1.4721 3.52591,1.99445 1.49584,0.52236 2.74237,0.78353 3.7396,0.78353 0.99723,0 1.6383,0 1.92322,0 5.27105,-0.28492 9.87729,-2.94419 13.8187,-7.97781 1.85199,-2.37435 3.49029,-4.73682 4.9149,-7.08743 1.42461,-2.3506 2.96793,-4.97426 4.62998,-7.87096 1.66204,-2.8967 3.06291,-5.10485 4.2026,-6.62443 -1.4721,1.66204 -3.32409,3.56152 -5.55597,5.69843 -2.23189,2.13691 -4.15511,3.68024 -5.76966,4.62998 -1.61456,0.94974 -3.1104,1.42461 -4.48752,1.42461 -1.37712,0 -2.55242,-0.41551 -3.52591,-1.24653 -0.97348,-0.83102 -1.46022,-1.86386 -1.46022,-3.09852 0,-3.51403 1.56707,-6.95684 4.70121,-10.32841 2.37435,-2.51681 5.31854,-4.29757 8.83257,-5.34228 1.56707,-0.52236 3.09852,-0.78353 4.59436,-0.78353 1.49584,0 2.94419,0.41551 4.34506,1.24653 1.40087,0.83102 2.29125,1.81638 2.67114,2.95606 0.75979,0 1.59081,0.32054 2.49306,0.96161 0.90225,0.64107 1.35338,1.10407 1.35338,1.38899 0,0.28492 -0.18995,0.52236 -0.56984,0.7123 -1.51958,0.75979 -3.91767,4.08388 -7.19427,9.97226 -3.18163,5.65095 -6.90935,10.70831 -11.18318,15.17208 -2.13691,2.23189 -4.61811,4.00078 -7.44358,5.30667 -2.82547,1.30589 -5.66282,1.95884 -8.51204,1.95884 z m 11.04072,-22.36635 c 0,1.0922 0.56984,1.6383 1.70953,1.6383 0.90225,0 2.0182,-0.49861 3.34783,-1.49584 3.22911,-2.13691 6.60069,-5.24731 10.11472,-9.33119 1.61456,-1.85199 2.42183,-3.30034 2.42183,-4.34506 0,-0.3799 -0.13059,-0.72418 -0.39177,-1.03284 -0.26118,-0.30867 -0.81915,-0.463 -1.67392,-0.463 -0.85477,0 -2.22001,0.49861 -4.09575,1.49584 -1.87573,0.99723 -3.79896,2.50494 -5.76966,4.52313 -1.97071,2.0182 -3.40719,3.8227 -4.30944,5.41351 -0.90225,1.59081 -1.35338,2.78986 -1.35338,3.59714 z"
       data-paper-data="{&quot;glyphName&quot;:&quot;g&quot;,&quot;glyphIndex&quot;:2,&quot;word&quot;:1}"
       id="path-id-2700" />
    <path
       d="m 281.83812,324.51338 c 0,0 -0.13059,0.15433 -0.39177,0.463 -0.26118,0.30867 -0.66482,0.81915 -1.21092,1.53145 -0.5461,0.7123 -1.23466,1.68579 -2.06568,2.92045 -0.83102,1.23466 -1.24653,2.27937 -1.24653,3.13414 0,0.85477 0.36802,1.28215 1.10407,1.28215 0.73605,0 1.93509,-0.45113 3.59714,-1.35338 3.32409,-1.89948 7.00433,-4.7487 11.04072,-8.54765 0.47487,-0.47487 0.78353,-0.5461 0.926,-0.21369 0,0.0475 0,0.14246 0,0.28492 0,0.14246 -0.095,0.30867 -0.28492,0.49861 -8.16776,7.69289 -14.10362,11.53933 -17.80761,11.53933 -1.0922,0 -2.00632,-0.36802 -2.74237,-1.10407 -0.73605,-0.73605 -1.10407,-1.60268 -1.10407,-2.59991 0,-0.99723 0.42738,-2.51681 1.28215,-4.55875 -2.13691,2.65927 -4.42816,4.71308 -6.87374,6.16143 -2.44558,1.44835 -4.35693,2.17253 -5.73405,2.17253 -1.37712,0 -2.55242,-0.41551 -3.52591,-1.24653 -0.97348,-0.83102 -1.46022,-1.86386 -1.46022,-3.09852 0,-3.51403 1.56707,-6.95684 4.70121,-10.32841 2.37435,-2.51681 5.31854,-4.29757 8.83257,-5.34228 1.56707,-0.52236 3.09852,-0.78353 4.59436,-0.78353 1.49584,0 2.94419,0.41551 4.34506,1.24653 1.40087,0.83102 2.29125,1.81638 2.67114,2.95606 1.42461,0 2.44558,0.52236 3.06291,1.56707 0.095,0.14246 0.14246,0.3799 0.14246,0.7123 0,0.33241 -0.17808,0.7123 -0.53423,1.13969 -0.35615,0.42738 -0.79541,0.94974 -1.31776,1.56707 z m -5.19982,-7.05181 c -0.99723,0 -2.1844,0.30867 -3.56152,0.926 -2.42183,1.04471 -4.72495,2.84922 -6.90935,5.41351 -3.46655,4.08388 -5.19982,7.07556 -5.19982,8.97503 0,0.99723 0.40364,1.49584 1.21092,1.49584 0.66482,0 1.76889,-0.42738 3.31221,-1.28215 1.54333,-0.85477 3.57339,-2.54055 6.0902,-5.05736 0.14246,-0.14246 0.68856,-0.66482 1.6383,-1.56707 0.94974,-0.90225 1.75702,-1.68579 2.42183,-2.3506 2.23189,-2.32686 3.34783,-4.00078 3.34783,-5.02175 0,-1.02097 -0.78353,-1.53145 -2.3506,-1.53145 z"
       data-paper-data="{&quot;glyphName&quot;:&quot;a&quot;,&quot;glyphIndex&quot;:3,&quot;word&quot;:1}"
       id="path-id-3211" />
    <path
       d="m 309.11937,319.52725 c 0.66482,-0.75979 0.99723,-1.35338 0.99723,-1.78076 0,-0.42738 -0.43925,-0.64107 -1.31776,-0.64107 -0.87851,0 -2.2675,0.83102 -4.16698,2.49306 -1.75702,1.51958 -3.88206,4.06013 -6.37512,7.62166 -2.49306,3.56152 -4.29757,5.97148 -5.41351,7.22989 -1.11594,1.2584 -2.1013,1.88761 -2.95606,1.88761 -0.095,0 -0.18995,0 -0.28492,0 -1.23466,0 -2.44558,-0.49861 -3.63275,-1.49584 0.28492,-0.42738 0.97348,-1.35338 2.06568,-2.77799 2.42183,-2.94419 4.535,-5.79341 6.33951,-8.54765 -2.04194,2.04194 -3.77521,3.63275 -5.19982,4.77244 -0.47487,0.3799 -0.74792,0.40364 -0.81915,0.0712 -0.0712,-0.33241 0.0356,-0.6292 0.32054,-0.89038 0.28492,-0.26118 0.75979,-0.68856 1.42461,-1.28215 0.66482,-0.59359 1.10407,-0.98535 1.31776,-1.1753 0.21369,-0.18995 0.61733,-0.55797 1.21092,-1.10407 0.59359,-0.5461 1.03284,-0.98535 1.31776,-1.31776 1.32963,-1.56707 2.30312,-2.8967 2.92045,-3.9889 0.23743,-0.56984 0.34428,-1.12782 0.32054,-1.67392 -0.0237,-0.5461 -0.14246,-0.90225 -0.35615,-1.06846 -0.21369,-0.1662 -0.29679,-0.36802 -0.24931,-0.60546 0,-0.3799 0.18995,-0.56984 0.56984,-0.56984 0.18995,0 0.40364,0.0475 0.64107,0.14246 1.4721,0.66482 2.20814,1.98258 2.20814,3.95329 0,1.97071 -0.42738,4.07201 -1.28215,6.30389 1.85199,-2.42183 3.25286,-4.15511 4.2026,-5.19982 2.46932,-2.75424 4.89116,-4.13136 7.2655,-4.13136 2.32686,0 3.70398,0.99723 4.13136,2.99168 0.0475,0.28492 0.0712,0.72418 0.0712,1.31776 0,0.59359 -0.22556,1.38899 -0.67669,2.38622 -0.45113,0.99723 -1.50771,2.63553 -3.16975,4.9149 -1.66204,2.27937 -2.62365,3.71585 -2.88483,4.30944 -0.26118,0.59359 -0.34428,1.03284 -0.24931,1.31776 0.095,0.28492 0.30867,0.45113 0.64107,0.49861 0.56984,0.095 1.54333,-0.28492 2.92045,-1.13969 1.94696,-1.37712 4.46377,-3.49029 7.55043,-6.33951 0.52236,-0.52236 0.78353,-0.47487 0.78353,0.14246 0,0.23743 -0.11872,0.47487 -0.35615,0.7123 -4.60623,4.27383 -8.02529,6.93309 -10.25718,7.97781 -2.61178,1.32963 -4.65372,1.54333 -6.12582,0.64107 -0.90225,-0.56984 -1.35338,-1.36525 -1.35338,-2.38622 0,-1.02097 0.18995,-2.05381 0.56984,-3.09852 0.85477,-2.42183 3.30034,-5.91213 7.33673,-10.47087 z"
       data-paper-data="{&quot;glyphName&quot;:&quot;n&quot;,&quot;glyphIndex&quot;:4,&quot;word&quot;:1}"
       id="path-id-41350" />
    <path
       d="m 332.48295,313.75758 c 0,0 -0.13059,-0.10685 -0.39177,-0.32054 -0.26118,-0.21369 -0.34428,-0.72418 -0.24931,-1.53145 0.095,-0.80728 0.52236,-1.66204 1.28215,-2.5643 0.75979,-0.90225 1.78076,-1.35338 3.06291,-1.35338 0.3799,0 0.78353,0.17808 1.21092,0.53423 0.42738,0.35615 0.59359,0.94974 0.49861,1.78076 -0.095,0.83102 -0.47487,1.61456 -1.13969,2.3506 -0.66482,0.73605 -1.41274,1.21092 -2.24376,1.42461 -0.83102,0.21369 -1.50771,0.10685 -2.03007,-0.32054 z m -0.92599,3.77522 c -1.94696,1.99445 -3.57339,4.52313 -4.87928,7.58604 -1.30589,3.06291 -1.95884,5.21169 -1.95884,6.44635 0,1.23466 0.48674,1.85199 1.46022,1.85199 0.97348,0 2.58804,-0.7123 4.84367,-2.13691 2.25563,-1.42461 4.8318,-3.4428 7.7285,-6.05459 0.61733,-0.56984 0.926,-0.49861 0.926,0.21369 0,0.095 -0.0475,0.18995 -0.14246,0.28492 -2.27937,1.99445 -4.2026,3.63275 -5.76966,4.9149 -1.56707,1.28215 -3.43093,2.50494 -5.59159,3.66837 -2.16066,1.16343 -3.92955,1.74515 -5.30667,1.74515 -1.70953,0 -2.97981,-0.3799 -3.81083,-1.13969 -0.83102,-0.75979 -1.24653,-1.59081 -1.24653,-2.49306 0,-1.70953 0.30867,-3.06291 0.926,-4.06013 0.61733,-0.99723 1.66204,-2.37435 3.13414,-4.13136 -0.52236,0.42738 -1.34151,1.13969 -2.45745,2.13691 -1.11594,0.99723 -1.88761,1.66204 -2.31499,1.99445 -0.42738,0.33241 -0.64107,0.23743 -0.64107,-0.28492 0,-0.33241 0.3799,-0.80728 1.13969,-1.42461 0.75979,-0.61733 2.40996,-2.1844 4.95051,-4.70121 2.54055,-2.51681 4.27383,-4.01265 5.19982,-4.48752 0.926,-0.47487 1.68579,-0.7123 2.27937,-0.7123 0.59359,0 1.03284,0.0831 1.31776,0.24931 0.28492,0.1662 0.35615,0.34428 0.21369,0.53423 z"
       data-paper-data="{&quot;glyphName&quot;:&quot;i&quot;,&quot;glyphIndex&quot;:5,&quot;word&quot;:1}"
       id="path-id-62242" />
    <path
       d="m 358.12591,318.60125 c 0,-0.90225 -0.47487,-1.35338 -1.42461,-1.35338 -0.80728,0 -2.05381,0.36802 -3.7396,1.10407 -1.68579,0.73605 -3.57339,2.31499 -5.66282,4.73682 -2.51681,2.99168 -3.77521,5.65095 -3.77521,7.97781 0,1.75702 0.66482,2.94419 1.99445,3.56152 0.42738,0.18995 0.926,0.28492 1.49584,0.28492 1.94696,0 4.23821,-0.83102 6.87374,-2.49306 2.63553,-1.66204 6.04271,-4.41629 10.22157,-8.26273 0.66482,-0.66482 0.99723,-0.66482 0.99723,0 0,0.28492 -0.14246,0.5461 -0.42738,0.78353 -5.79341,5.31854 -10.05536,8.60701 -12.78586,9.86541 -2.7305,1.2584 -4.87928,1.88761 -6.44635,1.88761 -5.50849,0 -8.26273,-2.0182 -8.26273,-6.05459 0,-4.03639 1.81638,-7.51481 5.44913,-10.43526 3.63275,-2.92045 7.41984,-4.38067 11.36125,-4.38067 2.46932,0 4.13136,0.56984 4.98613,1.70953 0.52236,0.56984 0.78353,1.1753 0.78353,1.81638 0,0.64107 -0.1662,1.30589 -0.49861,1.99445 -0.33241,0.68856 -0.86664,1.03284 -1.60268,1.03284 -0.73605,0 -0.84289,-0.463 -0.32054,-1.38899 0.52236,-0.926 0.78353,-1.7214 0.78353,-2.38622 z"
       data-paper-data="{&quot;glyphName&quot;:&quot;c&quot;,&quot;glyphIndex&quot;:6,&quot;word&quot;:1}"
       id="path-id-60013" />
    <path
       d="m 374.36644,334.27195 c -3.18163,1.61456 -5.95961,2.42183 -8.33396,2.42183 -1.99445,0 -3.34783,-0.66482 -4.06013,-1.99445 -0.3799,-0.66482 -0.56984,-1.42461 -0.56984,-2.27937 0,-1.94696 0.45113,-3.84644 1.35338,-5.69843 -0.61733,0.61733 -1.21092,1.11594 -1.78076,1.49584 -0.47487,0.42738 -0.7123,0.3799 -0.7123,-0.14246 0,-0.33241 0.41551,-0.85477 1.24653,-1.56707 0.83102,-0.7123 2.1013,-1.91135 3.81083,-3.59714 1.70953,-1.68579 3.06291,-2.95606 4.06013,-3.81083 2.8967,-2.42183 5.95961,-3.63275 9.18873,-3.63275 1.18717,0 2.39809,0.30867 3.63275,0.926 1.8045,0.85477 2.70676,2.42183 2.70676,4.70121 0,2.75424 -1.37712,5.57972 -4.13136,8.47642 -1.0922,1.23466 -2.61178,2.46932 -4.55875,3.70398 3.89393,-0.61733 8.02529,-2.96793 12.39409,-7.05181 0.23743,-0.18995 0.45113,-0.27305 0.64107,-0.24931 0.18995,0.0237 0.28492,0.13059 0.28492,0.32054 0,0.18995 -0.095,0.3799 -0.28492,0.56984 -5.22356,4.93864 -10.09098,7.40796 -14.60224,7.40796 -0.095,0 -0.18995,0 -0.28492,0 z m 6.90936,-7.4792 c 1.18717,-1.8045 1.78076,-3.33596 1.78076,-4.59436 0,-1.2584 -0.5461,-2.22001 -1.6383,-2.88483 -0.61733,-0.52236 -1.32963,-0.78353 -2.13691,-0.78353 -2.8967,0 -5.56785,1.13969 -8.01342,3.41906 -2.44558,2.27937 -4.07201,4.70121 -4.87928,7.2655 -0.33241,0.90225 -0.49861,1.84012 -0.49861,2.8136 0,0.97348 0.36802,1.66204 1.10407,2.06568 0.73605,0.40364 1.5552,0.60546 2.45745,0.60546 0.90225,0 2.20814,-0.45113 3.91767,-1.35338 -0.095,0 -0.23743,-0.0475 -0.42738,-0.14246 -0.56984,-0.28492 -0.85477,-0.66482 -0.85477,-1.13969 0,-1.66204 0.926,-3.34783 2.77799,-5.05736 1.32963,-1.18717 2.68301,-1.78076 4.06013,-1.78076 1.37712,0 2.16066,0.52236 2.3506,1.56707 z"
       data-paper-data="{&quot;glyphName&quot;:&quot;o&quot;,&quot;glyphIndex&quot;:7,&quot;lastGlyphOfWord&quot;:true,&quot;word&quot;:1}"
       id="path-id-91739" />
  </g>
  <g
     data-paper-data="{&quot;initialText&quot;:&quot;O&quot;,&quot;fillRule&quot;:&quot;nonzero&quot;,&quot;selectedEffects&quot;:{&quot;container&quot;:&quot;square_mask_outline1_rounded_rotated&quot;,&quot;transformation&quot;:&quot;&quot;,&quot;pattern&quot;:&quot;&quot;},&quot;relativeBoundsIconToContainer&quot;:{&quot;top&quot;:0,&quot;left&quot;:0},&quot;widthRatioIconToContainer&quot;:1.1,&quot;heightRatioIconToContainer&quot;:1.1,&quot;bounds&quot;:{&quot;x&quot;:203.84555264917827,&quot;y&quot;:115,&quot;width&quot;:142.30889470164345,&quot;height&quot;:142.30889470164345},&quot;isIcon&quot;:&quot;true&quot;,&quot;iconType&quot;:&quot;initial&quot;,&quot;iconStyle&quot;:&quot;standalone&quot;,&quot;rawInitialId&quot;:317}"
     id="g21"
     style="font-family:none;mix-blend-mode:normal;fill:#20948b;fill-rule:nonzero;stroke:none;stroke-width:1;stroke-linecap:butt;stroke-linejoin:miter;stroke-miterlimit:10;stroke-dasharray:none;stroke-dashoffset:0"
     transform="translate(-160.46148,-115)">
    <path
       d="m 299.30947,210.46389 c 6.75868,-6.68601 10.13802,-14.78916 10.13802,-24.30946 0,-9.5203 -3.37935,-17.62346 -10.13802,-24.30946 -6.68601,-6.75868 -14.78916,-10.13802 -24.30946,-10.13802 -9.5203,0 -17.62346,3.37935 -24.30946,10.13802 -6.75868,6.68601 -10.13802,14.78916 -10.13802,24.30946 0,9.5203 3.37935,17.62346 10.13802,24.30946 6.68601,6.75868 14.78916,10.13802 24.30946,10.13802 9.5203,0 17.62346,-3.37935 24.30946,-10.13802 z m 4.46944,-53.08835 c 7.92146,7.99415 11.8822,17.58712 11.8822,28.7789 0,11.19181 -3.96074,20.78478 -11.8822,28.7789 -7.99413,7.92146 -17.5871,11.8822 -28.7789,11.8822 -11.19178,0 -20.78476,-3.96074 -28.7789,-11.8822 -7.92146,-7.99413 -11.8822,-17.5871 -11.8822,-28.7789 0,-11.19178 3.96074,-20.78476 11.8822,-28.7789 7.99415,-7.92146 17.58712,-11.8822 28.7789,-11.8822 11.19181,0 20.78478,3.96074 28.7789,11.8822 z m 4.36044,62.02725 c 9.2296,-9.22959 13.84441,-20.31237 13.84441,-33.24835 0,-12.93596 -4.6148,-23.98241 -13.84441,-33.13935 -9.15692,-9.2296 -20.20336,-13.84441 -33.13935,-13.84441 -12.93596,0 -24.01875,4.6148 -33.24835,13.84441 -9.15692,9.15693 -13.73538,20.20338 -13.73538,33.13935 0,12.93596 4.57847,24.01875 13.73538,33.24835 9.22959,9.15692 20.31238,13.73538 33.24835,13.73538 12.93598,0 23.98243,-4.57845 33.13935,-13.73538 z m 20.05803,-33.24835 c 0,9.89652 -2.36152,18.81872 -7.08454,26.7666 l 11.45201,-11.45201 c 1.23078,-4.84942 1.84617,-9.95428 1.84617,-15.31459 0,-5.36027 -0.61538,-10.4651 -1.84614,-15.31448 L 321.113,159.38809 c 4.72293,7.94781 7.08439,16.86993 7.08439,26.76635 z M 275,239.35182 c -9.89643,0 -18.81854,-2.36147 -26.76636,-7.0844 l 11.58245,11.58247 c 4.81043,1.21639 9.87173,1.82457 15.1839,1.82457 5.31222,0 10.37356,-0.6082 15.18401,-1.8246 l 11.58257,-11.58257 c -7.94786,4.72302 -16.87005,7.08452 -26.76658,7.08452 z m -53.19737,-53.19738 c 0,-9.8963 2.3614,-18.81832 7.08422,-26.76605 l -11.58234,11.58234 c -1.21635,4.81037 -1.82452,9.87161 -1.82452,15.18371 0,5.31215 0.60819,10.37342 1.82455,15.18381 l 11.58244,11.58245 c -4.72289,-7.94778 -7.08434,-16.86987 -7.08434,-26.76627 z M 275,132.95707 c 9.8964,0 18.8185,2.36145 26.76628,7.08436 l -11.4519,-11.45187 c -4.84936,-1.23074 -9.95415,-1.84612 -15.31439,-1.84612 -5.3602,0 -10.46496,0.61537 -15.31429,1.8461 l -11.45175,11.45175 c 7.94772,-4.72281 16.86975,-7.0842 26.76603,-7.0842 z m 65.73364,53.19737 c 0,2.56351 -0.12907,5.07451 -0.38722,7.53301 l 1.42337,-1.42337 c 1.68702,-1.68724 2.53054,-3.72378 2.53054,-6.10964 0,-2.38586 -0.84351,-4.42238 -2.53054,-6.10958 l -1.42336,-1.42336 c 0.25814,2.45848 0.38721,4.96946 0.38721,7.53294 z M 275,120.42081 c 2.56345,0 5.07439,0.12907 7.53284,0.3872 l -1.4232,-1.42319 c -1.68724,-1.68711 -3.72378,-2.53066 -6.10964,-2.53066 -2.38586,0 -4.42238,0.84356 -6.10958,2.53066 l -1.42318,1.42318 c 2.45842,-0.25813 4.96934,-0.38719 7.53276,-0.38719 z m -65.73363,65.73363 c 0,-2.56342 0.12907,-5.07434 0.38719,-7.53276 l -1.42318,1.42318 c -1.68711,1.68719 -2.53066,3.72372 -2.53066,6.10958 0,2.38586 0.84356,4.42241 2.53066,6.10964 l 1.42319,1.4232 c -0.25813,-2.45844 -0.3872,-4.96939 -0.3872,-7.53284 z M 275,251.88808 c -2.56348,0 -5.07446,-0.12907 -7.53294,-0.38721 l 1.42336,1.42336 c 1.68719,1.68702 3.72372,2.53054 6.10958,2.53054 2.38586,0 4.42241,-0.84351 6.10964,-2.53054 l 1.42337,-1.42337 c -2.4585,0.25815 -4.96951,0.38722 -7.53301,0.38722 z M 206.91941,178.7339 267.57945,118.07386 C 269.62867,116.02462 272.10218,115 274.99999,115 c 2.89781,0 5.37137,1.02462 7.42067,3.07386 l 60.65982,60.66004 c 2.04931,2.04922 3.07396,4.52273 3.07396,7.42054 0,2.89802 -1.02465,5.37158 -3.07396,7.42067 l -60.65982,60.65982 c -2.04931,2.04931 -4.52286,3.07396 -7.42067,3.07396 -2.89781,0 -5.37133,-1.02465 -7.42054,-3.07396 l -60.66004,-60.65982 c -2.04924,-2.04931 -3.07386,-4.52286 -3.07386,-7.42067 0,-2.89781 1.02462,-5.37133 3.07386,-7.42054 z"
       data-paper-data="{&quot;isPathIcon&quot;:true}"
       id="path-id-82780" />
  </g>
</svg>
